# xmcd
#
# Track frame offsets:
#	150
#	28583
#	46225
#	66005
#	84007
#	114308
#	144854
#	175974
#	216092
#	241953
#
# Disc length: 3743 seconds
#
# Revision: 0
# Processed by: cddbd v1.5.1PL2 Copyright (c) Steve Scherf et al.
# Submitted via: EasyCDDAExtractor 8.2.3.1
#
DISCID=780e9d0a
DTITLE=Paul Barrere and Fred Tackett - The Ram's Head - Annapolis, MD 04-21-99 d
DTITLE=isc 1
DYEAR=1999
DGENRE=Blues
TTITLE0=Hate To Lose Your Loving
TTITLE1=Two Trains>
TTITLE2=Rocket In My Pocket
TTITLE3=Trouble
TTITLE4=Down On The Farm
TTITLE5=Roll 'Em Easy
TTITLE6=Cajun Rage
TTITLE7=Desperado
TTITLE8=All That You Dream
TTITLE9=Clownin'
EXTD=
EXTT0=
EXTT1=
EXTT2=
EXTT3=
EXTT4=
EXTT5=
EXTT6=
EXTT7=
EXTT8=
EXTT9=
PLAYORDER=
